<?xml version="1.0" encoding="utf-8"?>
<svg xmlns="http://www.w3.org/2000/svg" width="13.495" height="16" viewBox="0 0 13.495 16">
  <g id="Appstore" transform="translate(-12 -7)">
    <g id="Group_228" data-name="Group 228" transform="translate(12 7)">
      <path id="Path_100" data-name="Path 100" d="M34.4,24.7a3.53,3.53,0,0,0,.437,6.348c-.1.252-.191.509-.3.759a9.571,9.571,0,0,1-1.676,2.58,3.875,3.875,0,0,1-.48.447,2.139,2.139,0,0,1-2.205.273,11.284,11.284,0,0,0-1.14-.37,3.341,3.341,0,0,0-1.946.2c-.337.122-.676.236-1.022.329a1.669,1.669,0,0,1-1.4-.267,4.751,4.751,0,0,1-1.017-.973,9.971,9.971,0,0,1-2.176-4.7,6.318,6.318,0,0,1,.207-3.366,4.112,4.112,0,0,1,2.965-2.712,3.6,3.6,0,0,1,2.179.193c.32.117.643.22.963.334a1.132,1.132,0,0,0,.792,0c.465-.166.93-.332,1.4-.473a4.072,4.072,0,0,1,3.63.6A3.16,3.16,0,0,1,34.4,24.7Z" transform="translate(-21.343 -19.316)" fill="#121212"/>
      <path id="Path_101" data-name="Path 101" d="M37.355,16a3,3,0,0,1-.238,1.565,3.866,3.866,0,0,1-2.033,2.054,2.35,2.35,0,0,1-.914.169c-.121,0-.16-.043-.163-.16a3.275,3.275,0,0,1,.607-2,3.7,3.7,0,0,1,2.6-1.618C37.256,16,37.3,16,37.355,16Z" transform="translate(-27.25 -16)" fill="#121212"/>
    </g>
  </g>
</svg>