<svg width="24" height="24" viewBox="0 0 24 24" fill="none" xmlns="http://www.w3.org/2000/svg">
<path d="M12.0009 2C9.48224 2.00605 7.0582 2.96012 5.21109 4.67235C3.36398 6.38459 2.22921 8.72948 2.03257 11.2404C1.83592 13.7514 2.59183 16.2443 4.14988 18.2232C5.70792 20.2022 7.95389 21.5219 10.4409 21.92V14.92H7.90088V12.02H10.4409V9.81C10.3859 9.29517 10.4449 8.77454 10.6138 8.2851C10.7827 7.79566 11.0573 7.34942 11.4182 6.97809C11.779 6.60677 12.2172 6.31946 12.7016 6.13659C13.186 5.95372 13.7047 5.87977 14.2209 5.92C14.9678 5.93012 15.713 5.99362 16.4509 6.11V8.58H15.1909C14.9762 8.55161 14.7578 8.57182 14.552 8.63912C14.3461 8.70643 14.158 8.81911 14.0015 8.96886C13.8451 9.11861 13.7242 9.30159 13.648 9.5043C13.5717 9.707 13.5419 9.92425 13.5609 10.14V12.02H16.3409L15.8909 14.92H13.5609V21.92C16.0479 21.5219 18.2938 20.2022 19.8519 18.2232C21.4099 16.2443 22.1658 13.7514 21.9692 11.2404C21.7726 8.72948 20.6378 6.38459 18.7907 4.67235C16.9436 2.96012 14.5195 2.00605 12.0009 2Z" fill="#21695C"/>
</svg>
